<?xml version="1.0" encoding="UTF-8" standalone="no"?>
<!-- Created with Inkscape (http://www.inkscape.org/) -->

<svg
   width="256mm"
   height="256mm"
   viewBox="0 0 256 256"
   version="1.1"
   id="svg1"
   xml:space="preserve"
   xmlns:xlink="http://www.w3.org/1999/xlink"
   xmlns="http://www.w3.org/2000/svg"
   xmlns:svg="http://www.w3.org/2000/svg"
   xmlns:rdf="http://www.w3.org/1999/02/22-rdf-syntax-ns#"
   xmlns:cc="http://creativecommons.org/ns#"><defs
     id="defs1"><pattern
       xlink:href="#Strips2_1"
       preserveAspectRatio="xMidYMid"
       id="pattern19"
       patternTransform="scale(2)" /><pattern
       patternUnits="userSpaceOnUse"
       width="1.5"
       height="1"
       patternTransform="translate(0,0) scale(2,2)"
       preserveAspectRatio="xMidYMid"
       id="Strips2_1"
       style="fill:#000000">
      <rect
   style="stroke:none"
   x="0"
   y="-0.5"
   width="1"
   height="2"
   id="rect197" />
    </pattern><filter
       style="color-interpolation-filters:sRGB"
       id="filter1"
       x="-0.0046588702"
       y="-0.033266378"
       width="1.0093366"
       height="1.0665328"><feGaussianBlur
         stdDeviation="0.35338665"
         id="feGaussianBlur1" /></filter><filter
       style="color-interpolation-filters:sRGB"
       id="filter2"
       x="-0.0053001648"
       y="-0.026379217"
       width="1.0106097"
       height="1.0527584"><feGaussianBlur
         stdDeviation="0.41745338"
         id="feGaussianBlur2" /></filter><filter
       style="color-interpolation-filters:sRGB"
       id="filter3"
       x="-0.0055315911"
       y="-0.020677429"
       width="1.0110679"
       height="1.0413549"><feGaussianBlur
         stdDeviation="0.44483822"
         id="feGaussianBlur3" /></filter><filter
       style="color-interpolation-filters:sRGB"
       id="filter4"
       x="-0.0059352759"
       y="-0.017799786"
       width="1.0118726"
       height="1.0355996"><feGaussianBlur
         stdDeviation="0.49043089"
         id="feGaussianBlur4" /></filter></defs><g
     id="layer1"><path
       style="fill:none;stroke:#000000;stroke-width:0.659714;opacity:0.27;filter:url(#filter1)"
       d="m -2.4301894,141.70525 2.532675,-1.12193 2.532603,-1.08653 2.532529,-1.05117 2.532455,-1.01578 2.5324554,-1.01579 2.532382,-0.98039 2.532308,-0.94503 2.532309,-0.94502 2.532235,-0.90963 2.532163,-0.87426 2.53216,-0.87426 2.532089,-0.83888 2.532089,-0.83889 2.532015,-0.80348 2.532014,-0.8035 2.531942,-0.76812 2.531941,-0.76812 2.531869,-0.73273 2.531868,-0.73273 2.531795,-0.69736 2.531795,-0.69736 2.531721,-0.66198 2.531722,-0.66197 2.531647,-0.62658 2.531649,-0.6266 2.531564,-0.59121 2.531575,-0.59122 2.531501,-0.55583 2.531501,-0.55584 2.531428,-0.52043 2.531355,-0.48507 2.531352,-0.48509 2.531286,-0.44968 2.531277,-0.44969 2.531213,-0.41431 2.5312,-0.41431 2.53114,-0.37893 2.53106,-0.34355 2.53107,-0.34353 2.53099,-0.30817 2.530977,-0.30817 2.53099,-0.30817 2.53091,-0.27279 2.53091,-0.27278 2.53085,-0.23741 2.53084,-0.2374 2.53083,-0.23741 2.53077,-0.20202 2.53077,-0.20203 2.53077,-0.20203 2.53069,-0.16664 2.5307,-0.16664 2.53069,-0.16665 2.53063,-0.1312 2.53062,-0.13121 2.53061,-0.1312 2.53055,-0.0958 2.53055,-0.0958 2.53056,-0.0958 2.53047,-0.0605 2.53048,-0.0604 2.53046,-0.0605 2.5304,-0.0251 2.53041,-0.0251 2.5304,-0.0251 2.53032,0.01 2.53033,0.01 2.53033,0.01 2.53025,0.0458 2.53026,0.0456 2.53025,0.0458 2.53018,0.0811 2.53018,0.0811 2.53011,0.11647 2.53011,0.11646 2.53011,0.11646 2.53003,0.15178 2.53003,0.15179 2.52996,0.18716 2.52996,0.18717 2.52989,0.22254 2.52989,0.22255 2.52981,0.25792 2.52974,0.29331 2.52974,0.29331 2.52966,0.32869 2.52959,0.36406 2.52954,0.39945 2.52951,0.39944 2.52945,0.43484 2.52929,0.50559 2.52923,0.54097 2.52915,0.57636 2.52901,0.64711 2.52879,0.75325 2.52857,0.85941 2.52826,1.00092 2.52776,1.24858 2.5266,1.81469 1.26222,1.42035 0.75616,1.41831 0.5005,2.69098 -0.51165,2.68689 -0.76204,1.41216 -1.26809,1.41011 -2.53407,1.79415 -2.53289,1.22807 -2.53239,0.98039 -2.53209,0.83888 -2.5318,0.69735 -2.53164,0.62661 -2.5315,0.55583 -2.53136,0.48507 -2.53127,0.44967 -2.53122,0.41432 -2.53113,0.37892 -2.53107,0.34356 -2.53105,0.34355 -2.53099,0.30817 -2.53092,0.27278 -2.53091,0.27278 -2.53084,0.23741 -2.53085,0.2374 -2.53075,0.20203 -2.5307,0.16664 -2.53069,0.16665 -2.5307,0.16665 -2.53062,0.1312 -2.53062,0.13121 -2.53055,0.0958 -2.53054,0.0958 -2.53048,0.0605 -2.53047,0.0604 -2.53048,0.0604 -2.5304,0.0251 -2.5304,0.0251 -2.53033,-0.01 -2.53033,-0.01 -2.53032,-0.01 -2.53025,-0.0456 -2.53026,-0.0458 -2.53018,-0.0811 -2.53017,-0.0811 -2.53019,-0.0811 -2.5301,-0.11646 -2.53012,-0.11647 -2.53011,-0.11646 -2.53011,-0.11646 -2.53003,-0.15178 -2.53003,-0.15179 -2.53003,-0.15179 -2.53004,-0.15177 -2.52997,-0.18717 -2.52995,-0.18717 -2.52996,-0.18716 -2.52996,-0.18717 -2.52996,-0.18716 -2.52996,-0.18716 -2.52989,-0.22255 -2.52989,-0.22255 -2.52988,-0.22253 -2.52989,-0.22254 -2.52989,-0.22255 -2.529877,-0.22255 -2.52989,-0.22254 -2.5299,-0.22255 -2.52988,-0.22254 -2.52988,-0.22255 -2.52981,-0.25793 -2.529826,-0.25792 -2.529811,-0.25793 -2.52981,-0.25793 -2.529816,-0.25792 -2.529814,-0.25791 -2.529812,-0.25794 -2.529888,-0.22254 -2.529887,-0.22254 -2.529886,-0.22255 -2.529878,-0.22255 -2.529887,-0.22254 -2.529959,-0.18717 -2.529961,-0.18716 -2.529961,-0.18716 -2.530033,-0.15179 -2.530034,-0.15179 -2.530107,-0.11646 -2.530107,-0.11646 -2.530181,-0.0811 -2.530253,-0.0457 -2.530402,0.0251 -2.530546,0.0958 -2.530622,0.13121 -2.530767,0.20202 -2.530915,0.27279 -2.531061,0.34354 -2.531207,0.41431 -2.531355,0.48508 -2.531502,0.55583 -2.531647,0.62659 -2.5317954,0.69735 -2.532015,0.8035 -2.532163,0.87427 -2.53238,0.9804 -2.532529,1.05115 z"
       id="path1-0" /><path
       style="fill:none;stroke:#000000;stroke-width:0.837642;opacity:0.27577229;filter:url(#filter2)"
       d="m -11.750692,147.31744 2.6846258,-1.70635 2.6845503,-1.65252 2.6844732,-1.59872 2.6843937,-1.54491 2.6843937,-1.54491 2.6843177,-1.49108 2.6842393,-1.43729 2.6842382,-1.43729 2.6841621,-1.38345 2.684084,-1.32968 2.684082,-1.32966 2.684006,-1.27586 2.684006,-1.27586 2.683928,-1.22202 2.683927,-1.22204 2.68385,-1.16824 2.68385,-1.16823 2.683773,-1.11441 2.683772,-1.11442 2.683694,-1.06061 2.683695,-1.06061 2.683618,-1.0068 2.683616,-1.00681 2.683538,-0.95297 2.68354,-0.95299 2.68345,-0.89918 2.68346,-0.89918 2.683385,-0.84537 2.683382,-0.84538 2.683306,-0.79153 2.683228,-0.73774 2.683228,-0.73775 2.683151,-0.68394 2.683148,-0.68394 2.683073,-0.63012 2.683073,-0.63013 2.683,-0.57631 2.682906,-0.52251 2.682928,-0.52248 2.682838,-0.4687 2.682828,-0.46869 2.682845,-0.46869 2.68276,-0.41488 2.68276,-0.41488 2.68268,-0.36108 2.68268,-0.36106 2.68269,-0.36108 2.68259,-0.30726 2.68262,-0.30726 2.6826,-0.30726 2.68253,-0.25345 2.68252,-0.25345 2.68253,-0.25345 2.68246,-0.19955 2.68244,-0.199549 2.68245,-0.19954 2.68237,-0.14574 2.68238,-0.14575 2.68238,-0.14573 2.68229,-0.0919 2.6823,-0.09192 2.68228,-0.09192 2.68222,-0.03817 2.68222,-0.03807 2.68222,-0.03817 2.68213,0.01569 2.68215,0.01569 2.68213,0.01569 2.68207,0.06954 2.68205,0.06954 2.68207,0.06954 2.68198,0.12332 2.68199,0.12332 2.68191,0.17713 2.68191,0.17713 2.68189,0.17713 2.68184,0.230839 2.68182,0.23085 2.68175,0.28466 2.68174,0.28466 2.68169,0.33847 2.68166,0.33847 2.6816,0.39228 2.68151,0.4461 2.68153,0.44609 2.68142,0.49991 2.68137,0.55369 2.68128,0.60752 2.68128,0.60752 2.68121,0.66135 2.68105,0.76895 2.68098,0.82277 2.68088,0.87658 2.68075,0.98418 2.6805,1.14563 2.68027,1.30707 2.67997,1.52231 2.67941,1.89897 2.67817,2.75996 1.33797,2.16022 0.80153,2.15712 0.53051,4.09272 -0.54234,4.0865 -0.80775,2.14775 -1.34418,2.14463 -2.68611,2.72873 -2.68485,1.86778 -2.68433,1.49108 -2.684,1.27585 -2.6837,1.06062 -2.68354,0.95299 -2.68338,0.84537 -2.68323,0.73775 -2.68315,0.68391 -2.68307,0.63013 -2.683,0.57631 -2.68292,0.52251 -2.6829,0.5225 -2.68285,0.46869 -2.68276,0.41489 -2.68276,0.41488 -2.68268,0.36106 -2.68269,0.36108 -2.6826,0.30726 -2.68252,0.25345 -2.68254,0.25345 -2.68253,0.25345 -2.68244,0.19955 -2.68245,0.19955 -2.68237,0.14574 -2.68238,0.14573 -2.68229,0.0919 -2.6823,0.0919 -2.68229,0.0919 -2.68222,0.0381 -2.68222,0.0382 -2.68214,-0.0157 -2.68214,-0.0157 -2.68214,-0.0157 -2.68206,-0.0695 -2.68205,-0.0695 -2.68199,-0.12332 -2.68197,-0.12332 -2.682,-0.12331 -2.68189,-0.17712 -2.68193,-0.17713 -2.68189,-0.17713 -2.68191,-0.17713 -2.68182,-0.23085 -2.68184,-0.23084 -2.68182,-0.23086 -2.68184,-0.23084 -2.68174,-0.28466 -2.68175,-0.28466 -2.68175,-0.28466 -2.68175,-0.28466 -2.68175,-0.28466 -2.68175,-0.28466 -2.68167,-0.33848 -2.68167,-0.33847 -2.68166,-0.33844 -2.68169,-0.33848 -2.681671,-0.33846 -2.681664,-0.33848 -2.681675,-0.33847 -2.681675,-0.33846 -2.681675,-0.33848 -2.681663,-0.33847 -2.681598,-0.39228 -2.681594,-0.39228 -2.681596,-0.39229 -2.681593,-0.39228 -2.681595,-0.39228 -2.681594,-0.39225 -2.681595,-0.39229 -2.681672,-0.33847 -2.681672,-0.33847 -2.681672,-0.33848 -2.681661,-0.33846 -2.681672,-0.33847 -2.68175,-0.28466 -2.681751,-0.28466 -2.68175,-0.28466 -2.681827,-0.23085 -2.681829,-0.23085 -2.681905,-0.17712 -2.681905,-0.17713 -2.681983,-0.12332 -2.682061,-0.0695 -2.682218,0.0382 -2.682371,0.14573 -2.682451,0.19956 -2.682605,0.30726 -2.682762,0.41488 -2.682917,0.5225 -2.6830723,0.63013 -2.6832268,0.73775 -2.6833845,0.84536 -2.6835379,0.953 -2.6836945,1.06058 -2.6839282,1.22205 -2.6840839,1.32967 -2.6843151,1.4911 -2.6844728,1.5987 z"
       id="path1-06" /><path
       style="fill:none;stroke:#000000;stroke-width:1.03244;opacity:0.27;filter:url(#filter3)"
       d="m -18.973154,153.53782 2.867609,-2.42681 2.867513,-2.35029 2.86743,-2.2738 2.8673578,-2.19724 2.8673466,-2.19724 2.8672737,-2.12068 2.8671906,-2.04419 2.8671907,-2.04417 2.8670942,-1.96762 2.8670203,-1.89112 2.8670311,-1.8911 2.866938,-1.81459 2.866928,-1.81458 2.866857,-1.73803 2.866856,-1.73805 2.866764,-1.66151 2.866774,-1.66151 2.866682,-1.58497 2.866682,-1.58497 2.866611,-1.50846 2.86661,-1.50845 2.866528,-1.43192 2.866508,-1.43192 2.866435,-1.35535 2.866447,-1.35539 2.866343,-1.27886 2.866354,-1.27886 2.866283,-1.20232 2.866271,-1.20233 2.866169,-1.12576 2.866119,-1.04925 2.866107,-1.049261 2.866025,-0.972726 2.866016,-0.972734 2.865954,-0.896185 2.865933,-0.896199 2.865862,-0.819656 2.86577,-0.743126 2.865779,-0.743105 2.865687,-0.666597 2.865677,-0.666596 2.865698,-0.666597 2.86562,-0.590068 2.8656,-0.590067 2.86553,-0.513527 2.86552,-0.513538 2.86553,-0.513526 2.86544,-0.437008 2.86545,-0.436998 2.86544,-0.436998 2.86535,-0.360467 2.86536,-0.360468 2.86536,-0.360457 2.86527,-0.283817 2.86529,-0.283807 2.86526,-0.283808 2.8652,-0.207267 2.86519,-0.207289 2.8652,-0.207266 2.86512,-0.130738 2.86511,-0.130747 2.86509,-0.130748 2.86503,-0.0542 2.86502,-0.0542 2.86503,-0.0542 2.86494,0.02235 2.86495,0.02235 2.86494,0.02235 2.86486,0.0989 2.86487,0.09879 2.86485,0.0989 2.86477,0.175381 2.86478,0.175392 2.8647,0.251911 2.8647,0.251922 2.8647,0.251922 2.8646,0.32832 2.86462,0.328321 2.86452,0.40485 2.86452,0.40486 2.86446,0.481391 2.86444,0.48139 2.86435,0.55792 2.86428,0.63446 2.86428,0.634451 2.86421,0.710979 2.8641,0.787466 2.86403,0.864048 2.86403,0.86405 2.86395,0.940579 2.86377,1.093638 2.86371,1.170223 2.8636,1.246703 2.86345,1.399754 2.8632,1.62937 2.86296,1.85898 2.86261,2.1651 2.86203,2.70079 2.86072,3.92535 1.42914,3.07236 0.85617,3.06796 0.56667,5.82085 -0.57931,5.812 -0.86281,3.05463 -1.4358,3.05021 -2.86917,3.88091 -2.86784,2.65644 -2.86729,2.12067 -2.86692,1.81459 -2.86661,1.50845 -2.86645,1.35539 -2.86626,1.20232 -2.86612,1.04927 -2.86601,0.97269 -2.86595,0.89616 -2.86585,0.81969 -2.86578,0.7431 -2.86576,0.74314 -2.8657,0.66659 -2.86561,0.59006 -2.86561,0.59007 -2.86552,0.51353 -2.86553,0.51354 -2.86544,0.43699 -2.86535,0.36047 -2.86536,0.36046 -2.86536,0.36047 -2.86527,0.28382 -2.86528,0.2838 -2.86519,0.20728 -2.8652,0.20727 -2.86511,0.13073 -2.86511,0.13075 -2.8651,0.13075 -2.86503,0.0542 -2.86503,0.0542 -2.86494,-0.0224 -2.86494,-0.0223 -2.86495,-0.0223 -2.86486,-0.0988 -2.86486,-0.0988 -2.86478,-0.17538 -2.86475,-0.1754 -2.86479,-0.17538 -2.86469,-0.25191 -2.86471,-0.25192 -2.86469,-0.25193 -2.86471,-0.25191 -2.8646,-0.32832 -2.86461,-0.32833 -2.86462,-0.32833 -2.86461,-0.32832 -2.86452,-0.40485 -2.86453,-0.40486 -2.86453,-0.40486 -2.86452,-0.40484 -2.86454,-0.40487 -2.86452,-0.40485 -2.86444,-0.48139 -2.86446,-0.48139 -2.86443,-0.48136 -2.86446,-0.48138 -2.86444,-0.4814 -2.864436,-0.48139 -2.864447,-0.48139 -2.864456,-0.48139 -2.864436,-0.48139 -2.864436,-0.48138 -2.864365,-0.55792 -2.864375,-0.55792 -2.864364,-0.55793 -2.864354,-0.55791 -2.864355,-0.55792 -2.864374,-0.5579 -2.864354,-0.55791 -2.864436,-0.48138 -2.864447,-0.4814 -2.864446,-0.48139 -2.864446,-0.48139 -2.864437,-0.48139 -2.864528,-0.40485 -2.864539,-0.40486 -2.864518,-0.40485 -2.864611,-0.32832 -2.86461,-0.32834 -2.864693,-0.25191 -2.864692,-0.25192 -2.864775,-0.17539 -2.864856,-0.0988 -2.865021,0.0542 -2.865195,0.20728 -2.865277,0.28381 -2.865452,0.43699 -2.865594,0.59007 -2.86578,0.74312 -2.8659508,0.89619 -2.8661027,1.04926 -2.8662697,1.20234 -2.8664492,1.35538 -2.8665928,1.50842 -2.8668568,1.73804 -2.867023,1.89113 -2.867274,2.1207 -2.867418,2.27375 z"
       id="path1-8" /><path
       style="fill:none;stroke:#000000;stroke-width:1.208;opacity:0.27;filter:url(#filter4)"
       d="m -26.299399,159.99385 3.005244,-3.17025 3.005169,-3.07023 3.005083,-2.97029 3.004991,-2.87032 3.004983,-2.87033 3.0049186,-2.77031 3.0048187,-2.67036 3.0048188,-2.67036 3.00472991,-2.57035 3.00464349,-2.47042 3.0046422,-2.47043 3.0045563,-2.37043 3.004555,-2.37044 3.004467,-2.27043 3.004467,-2.27045 3.004381,-2.17051 3.004391,-2.17047 3.004306,-2.07046 3.004291,-2.07051 3.004204,-1.97054 3.004204,-1.97053 3.004117,-1.87056 3.004142,-1.87056 3.00403,-1.77054 3.004027,-1.77057 3.003929,-1.670615 3.003954,-1.670601 3.003854,-1.570637 3.003864,-1.570623 3.00378,-1.470606 3.003677,-1.370684 3.003692,-1.37067 3.003601,-1.270694 3.003604,-1.270707 3.003505,-1.170724 3.003515,-1.170732 3.003427,-1.07074 3.003336,-0.970778 3.003313,-0.970724 3.003257,-0.870789 3.003258,-0.870801 3.003246,-0.870787 3.003167,-0.770825 3.00316,-0.770812 3.00309,-0.670848 3.00306,-0.670835 3.00308,-0.670847 3.003,-0.57086 3.00298,-0.570873 3.00299,-0.570857 3.00291,-0.470896 3.00288,-0.470881 3.0029,-0.470896 3.00284,-0.370745 3.00279,-0.370745 3.00282,-0.370745 3.00273,-0.270768 3.00273,-0.27077 3.00275,-0.270767 3.00265,-0.170792 3.00263,-0.170794 3.00264,-0.170791 3.00255,-0.07077 3.00255,-0.07076 3.00255,-0.07077 3.00247,0.02915 3.00249,0.02915 3.00244,0.02915 3.00239,0.129084 3.00239,0.129083 3.00238,0.129085 3.00229,0.229113 3.00229,0.229114 3.00221,0.329091 3.0022,0.329091 3.00221,0.32909 3.00213,0.428893 3.0021,0.428893 3.00203,0.528882 3.00203,0.528869 3.00196,0.62886 3.00193,0.628845 3.00185,0.728824 3.00177,0.828811 3.00179,0.828799 3.00168,0.92879 3.00158,1.02871 3.00152,1.128729 3.00151,1.128743 3.00143,1.228704 3.00124,1.428656 3.00116,1.528636 3.00108,1.62863 3.0009,1.828523 3.00064,2.128493 3.00037,2.428424 3.00003,2.828341 2.99942,3.528123 2.99804,5.12779 1.49775,4.01349 0.89725,4.00777 0.59387,7.60395 -0.6071,7.59237 -0.90423,3.99034 -1.50472,3.98456 -3.0069,5.06976 -3.00552,3.47019 -3.0049,2.77029 -3.00456,2.37045 -3.0042,1.97052 -3.00404,1.77058 -3.00386,1.57063 -3.00369,1.37069 -3.00359,1.27064 -3.00352,1.17073 -3.00342,1.07074 -3.00335,0.97077 -3.00333,0.97078 -3.00324,0.87079 -3.00319,0.77082 -3.00315,0.77084 -3.00307,0.67082 -3.00308,0.67085 -3.00299,0.57086 -3.00289,0.47089 -3.00293,0.47089 -3.00289,0.47088 -3.0028,0.37075 -3.00283,0.37075 -3.00273,0.27077 -3.00273,0.27078 -3.00264,0.17078 -3.00265,0.17079 -3.00263,0.1708 -3.00256,0.0708 -3.00254,0.0709 -3.00248,-0.0292 -3.00246,-0.0291 -3.00246,-0.0292 -3.00239,-0.12909 -3.00238,-0.12908 -3.00229,-0.2291 -3.00228,-0.2291 -3.0023,-0.22913 -3.0022,-0.32908 -3.00223,-0.32909 -3.00221,-0.32909 -3.0022,-0.32909 -3.00211,-0.42889 -3.00213,-0.42892 -3.00211,-0.42889 -3.00214,-0.42889 -3.00201,-0.52889 -3.00204,-0.52887 -3.00204,-0.52888 -3.00201,-0.52887 -3.00205,-0.52886 -3.00203,-0.52888 -3.00195,-0.62886 -3.00194,-0.62886 -3.00194,-0.6288 -3.001957,-0.62885 -3.001943,-0.62885 -3.001919,-0.62885 -3.001954,-0.62886 -3.001942,-0.62885 -3.001942,-0.62884 -3.001942,-0.62886 -3.001863,-0.72882 -3.001852,-0.72883 -3.001857,-0.72882 -3.001863,-0.72884 -3.001859,-0.72884 -3.001849,-0.72877 -3.001862,-0.72883 -3.001946,-0.62885 -3.001938,-0.62885 -3.001949,-0.62885 -3.001921,-0.62885 -3.001964,-0.62885 -3.002023,-0.52889 -3.002036,-0.52885 -3.002024,-0.52889 -3.002124,-0.42889 -3.002123,-0.42891 -3.002201,-0.32908 -3.002211,-0.3291 -3.002286,-0.2291 -3.002388,-0.12909 -3.002551,0.0708 -3.002725,0.27078 -3.002826,0.37075 -3.0029759,0.57087 -3.0031652,0.7708 -3.00335069,0.97079 -3.00350341,1.17071 -3.0036778,1.37067 -3.0038666,1.57064 -3.0040404,1.77057 -3.004204,1.97049 -3.004468,2.27046 -3.004643,2.47043 -3.004906,2.77035 -3.005081,2.97024 z"
       id="path1-02" /><path
       style="opacity:0.163018;fill:url(#pattern19);fill-opacity:1;stroke:#0073e2;stroke-width:0.712057;stroke-dasharray:none;stroke-opacity:1"
       d="M 246.61416,126.07339 C 226.12898,69.351115 243.90172,66.618033 217.33401,57.98809 178.96404,45.524448 155.68656,52.570215 142.12511,52.200827 132.01152,51.925351 97.854624,58.57428 80.064376,69.142632 58.152002,82.159746 44.29303,85.097033 34.820387,98.153962 L 7.4675581,135.85664"
       id="path5" /><path
       style="fill:#ffffff;stroke:#000000;stroke-width:0.529167;fill-opacity:1;opacity:1"
       d="m 7.8055613,137.73195 2.4022167,-0.76104 2.402148,-0.73703 2.402078,-0.71304 2.402008,-0.68904 2.402008,-0.68904 2.401939,-0.66503 2.401869,-0.64104 2.401869,-0.64104 2.4018,-0.61703 2.40173,-0.59304 2.401729,-0.59304 2.401661,-0.56904 2.40166,-0.56904 2.401591,-0.54503 2.40159,-0.54504 2.401521,-0.52104 2.401521,-0.52104 2.401452,-0.49703 2.401451,-0.49704 2.401382,-0.47304 2.401382,-0.47304 2.401313,-0.44904 2.401312,-0.44904 2.401242,-0.42503 2.401243,-0.42504 2.401163,-0.40104 2.401173,-0.40104 2.401104,-0.37704 2.401103,-0.37704 2.401034,-0.35303 2.400965,-0.32904 2.400964,-0.32904 2.400895,-0.30504 2.400894,-0.30504 2.400825,-0.28104 2.400825,-0.28104 2.400756,-0.25704 2.400686,-0.23304 2.400686,-0.23303 2.40062,-0.20904 2.40061,-0.20904 2.40062,-0.20904 2.40055,-0.18504 2.40054,-0.18504 2.40048,-0.16104 2.40048,-0.16104 2.40047,-0.16104 2.40041,-0.13704 2.40041,-0.13704 2.40041,-0.13704 2.40033,-0.11304 2.40034,-0.11304 2.40034,-0.11304 2.40027,-0.089 2.40027,-0.089 2.40026,-0.089 2.4002,-0.065 2.4002,-0.065 2.40021,-0.065 2.40013,-0.041 2.40013,-0.041 2.40012,-0.041 2.40006,-0.017 2.40006,-0.017 2.40006,-0.017 2.39999,0.007 2.39999,0.007 2.39999,0.007 2.39992,0.031 2.39992,0.031 2.39992,0.031 2.39985,0.055 2.39985,0.055 2.39979,0.079 2.39978,0.079 2.39978,0.079 2.39971,0.10296 2.39971,0.10296 2.39964,0.12696 2.39964,0.12696 2.39958,0.15096 2.39957,0.15096 2.3995,0.17496 2.39943,0.19896 2.39944,0.19896 2.39936,0.22296 2.39929,0.24695 2.39923,0.27096 2.39922,0.27096 2.39916,0.29496 2.39901,0.34296 2.39895,0.36696 2.39887,0.39096 2.39874,0.43895 2.39853,0.51096 2.39832,0.58296 2.39804,0.67896 2.39755,0.84695 2.39645,1.23096 1.19721,0.96347 0.71721,0.96209 0.47471,1.82538 -0.48529,1.8226 -0.72278,0.95791 -1.20278,0.95652 -2.40354,1.21703 -2.40242,0.83304 -2.40194,0.66503 -2.40166,0.56904 -2.40139,0.47304 -2.40124,0.42504 -2.4011,0.37704 -2.40097,0.32904 -2.40089,0.30503 -2.40083,0.28104 -2.40075,0.25704 -2.40069,0.23304 -2.40068,0.23304 -2.40062,0.20904 -2.40055,0.18504 -2.40054,0.18504 -2.40048,0.16104 -2.40048,0.16104 -2.4004,0.13704 -2.40034,0.11304 -2.40034,0.11304 -2.40034,0.11304 -2.40026,0.089 -2.40027,0.089 -2.4002,0.065 -2.4002,0.065 -2.40013,0.041 -2.40013,0.041 -2.40013,0.041 -2.40006,0.017 -2.40006,0.017 -2.39999,-0.007 -2.39999,-0.007 -2.39999,-0.007 -2.39992,-0.031 -2.39992,-0.031 -2.39985,-0.055 -2.39984,-0.055 -2.39986,-0.055 -2.39978,-0.079 -2.39979,-0.079 -2.39978,-0.079 -2.39978,-0.079 -2.39971,-0.10296 -2.39971,-0.10296 -2.39971,-0.10296 -2.39972,-0.10296 -2.39964,-0.12696 -2.39964,-0.12696 -2.39964,-0.12696 -2.39964,-0.12696 -2.39965,-0.12696 -2.39964,-0.12696 -2.39957,-0.15096 -2.39957,-0.15096 -2.39957,-0.15095 -2.39958,-0.15096 -2.39957,-0.15096 -2.39957,-0.15096 -2.39957,-0.15096 -2.399576,-0.15096 -2.399572,-0.15096 -2.399572,-0.15096 -2.399503,-0.17496 -2.399503,-0.17496 -2.399503,-0.17496 -2.399502,-0.17496 -2.399503,-0.17496 -2.399503,-0.17495 -2.399502,-0.17496 -2.399573,-0.15096 -2.399572,-0.15096 -2.399572,-0.15096 -2.399563,-0.15096 -2.399572,-0.15096 -2.399642,-0.12696 -2.399642,-0.12696 -2.399642,-0.12696 -2.399711,-0.10296 -2.399712,-0.10296 -2.399781,-0.079 -2.399781,-0.079 -2.399851,-0.055 -2.39992,-0.031 -2.40006,0.017 -2.400198,0.065 -2.400269,0.089 -2.400407,0.13704 -2.400547,0.18504 -2.400686,0.23304 -2.400825,0.28104 -2.400964,0.32904 -2.401104,0.37704 -2.401242,0.42504 -2.401382,0.47303 -2.401591,0.54504 -2.40173,0.59304 -2.401938,0.66504 -2.4020782,0.71303 z"
       id="path1" /></g><metadata
     id="metadata1"><rdf:RDF><cc:Work
         rdf:about=""><cc:license
           rdf:resource="http://creativecommons.org/publicdomain/zero/1.0/" /></cc:Work><cc:License
         rdf:about="http://creativecommons.org/publicdomain/zero/1.0/"><cc:permits
           rdf:resource="http://creativecommons.org/ns#Reproduction" /><cc:permits
           rdf:resource="http://creativecommons.org/ns#Distribution" /><cc:permits
           rdf:resource="http://creativecommons.org/ns#DerivativeWorks" /></cc:License></rdf:RDF></metadata></svg>
